<?xml version="1.0" encoding="utf-8"?>
<!-- Generator: Adobe Illustrator 22.1.0, SVG Export Plug-In . SVG Version: 6.00 Build 0)  -->
<svg version="1.1" id="Layer_1" xmlns="http://www.w3.org/2000/svg" xmlns:xlink="http://www.w3.org/1999/xlink" x="0px" y="0px"
	 viewBox="0 0 250 33" style="enable-background:new 0 0 250 33;" xml:space="preserve">
<style type="text/css">
	.st0{fill:#EC1D24;}
	.st1{fill:#FEFEFE;}
	.st2{filter:url(#Adobe_OpacityMaskFilter);}
	.st3{fill:#FFFFFF;}
	.st4{mask:url(#mask-2_1_);fill:#FEFEFE;}
	.st5{filter:url(#Adobe_OpacityMaskFilter_1_);}
	.st6{mask:url(#mask-2_2_);fill:#FEFEFE;}
	.st7{filter:url(#Adobe_OpacityMaskFilter_2_);}
	.st8{mask:url(#mask-2_3_);fill:#FEFEFE;}
	.st9{filter:url(#Adobe_OpacityMaskFilter_3_);}
	.st10{mask:url(#mask-2_4_);fill:#FEFEFE;}
	.st11{fill:#FFFFFD;}
</style>
<title>Footage/Logo</title>
<desc>Created with Sketch.</desc>
<g id="Group-25" transform="translate(0.000000, 0.049362)">
	<path id="Fill-2" class="st0" d="M138,23.1c-0.5,0-0.9-0.4-0.9-0.9c0-0.5,0.4-0.9,0.9-0.9c0.5,0,0.9,0.4,0.9,0.9
		C138.9,22.7,138.6,23.1,138,23.1z"/>
	<path id="Fill-4" class="st0" d="M144.7,23.2c-1.9,0-3.6-1.7-3.6-3.7c0-0.5,0.1-0.9,0.3-1.3c0.6-1.5,1.9-2.5,3.5-2.5
		c0.9,0,1.8,0.3,2.2,1.1c0.1,0.2,0.2,0.4,0.2,0.6c0,0.2,0,0.4-0.2,0.5c-0.1,0.2-0.4,0.3-0.6,0.3c-0.3,0-0.6-0.3-0.6-0.6
		c0-0.4,0.2-0.4,0.3-0.6c0,0,0-0.1,0-0.1c0,0,0-0.1,0-0.1c-0.2-0.4-0.9-0.6-1.3-0.6c-1.7,0-2.1,1.8-2.1,3.2c0,0.4,0.1,0.9,0.1,1.3
		c0.1,0.4,0.2,0.9,0.5,1.2c0.4,0.5,1,0.8,1.7,0.8c0.9,0,1.7-0.5,2.2-1.2l0.3,0.2C146.8,22.7,146,23.2,144.7,23.2"/>
	<path id="Fill-6" class="st0" d="M151.9,16.2c-0.3,0-0.5,0.1-0.8,0.2c-1.2,0.5-1.4,2.1-1.4,3.2c0,1.1,0.2,2.6,1.3,3
		c0.3,0.1,0.6,0.1,0.8,0.1c0.3,0,0.6-0.1,0.8-0.2c1.1-0.5,1.4-1.8,1.4-2.9C154.1,18.1,153.7,16.2,151.9,16.2 M151.9,23.2
		c-1.6,0-2.9-1-3.5-2.5c-0.2-0.4-0.3-0.9-0.3-1.3c0-2,1.8-3.7,3.8-3.7c2,0,3.7,1.8,3.7,3.7C155.6,21.5,153.9,23.2,151.9,23.2"/>
	<path id="Fill-8" class="st0" d="M165.4,23h-0.2v-0.4l1.2,0c0-0.1,0-0.2,0-0.3c0-0.6,0.1-1.1,0.1-1.7c0-0.6,0-1.3,0-1.9
		c0-1,0.1-2.3-1.3-2.3c-0.7,0-1.4,0.5-1.8,1.1c0,0.4,0.1,0.7,0.1,1v4.1l1.2,0V23h-3.7v-0.4l1.1,0v-4.8c0-0.8-0.2-1.5-1.2-1.5
		c-0.7,0-1.5,0.8-1.8,1.4v4.9l1.2,0V23h-3.8v-0.4l1.2,0v-6.1l-1,0l0-0.4c0.8,0,1.5,0,2.3-0.3l0.2,0.1V17c0.4-0.8,1.4-1.3,2.3-1.3
		c0.8,0,1.6,0.5,1.9,1.3c0.5-0.8,1.3-1.3,2.3-1.3c1.1,0,1.9,0.6,2.2,1.6c0.1,0.4,0.1,0.7,0.1,1.1c0,0.3,0,0.7,0,1l0,3.1l1.1,0V23
		H165.4z"/>
	<path id="Fill-10" class="st0" d="M35.8,32.1c-0.4,0-0.8-0.3-0.8-0.8V1c0-0.4,0.3-0.8,0.8-0.8c0.4,0,0.8,0.3,0.8,0.8v30.4
		C36.6,31.8,36.2,32.1,35.8,32.1"/>
	<path id="Fill-12" class="st1" d="M110,20.5v-1.2v-5.1c0-1.9-1.1-2.3-4.1-2.3c-3.3,0-4.4,0.4-4.4,2.7v1h2.7v-0.8
		c0-1.1,0.1-1.3,1.5-1.3c1.2,0,1.3,0.1,1.3,1.3V17l-1.6,0h-1.3c-2.2,0-2.9,1.1-3,2.3h2.8v-0.1c0-0.6,0.3-1,0.9-1l1.1,0h1v1.1v0.2
		l0,1.2c0,0.9-0.5,1-1,1h-1c-0.7,0-0.9-0.5-0.9-1v-1.4l-2.8,0c0,0,0,0.1,0,0.1v1.5c0,1.3,1,2.4,2.6,2.4h7.4v-1.7H110V20.5z"/>
	<polygon id="Fill-14" class="st1" points="132.9,21.6 132.9,19.3 132.9,12.1 128.7,12.1 128.7,13.6 129.8,13.6 129.8,19.3 
		129.8,21.6 128.7,21.6 128.7,23.3 134,23.3 134,21.6 	"/>
	<path id="Fill-16" class="st1" d="M122.5,11.9c-1.5,0-2.6,1.9-3.3,2.8v-2.6h-4.1v1.5h1.1v5.7v2.3h-1.1v1.7h5.1v-1.7h-1v-2.3v-2
		c0-0.4,2.4-3.5,2.4-3.1v4.2h2.8v-4.8C124.5,12.6,123.8,11.9,122.5,11.9"/>
	<polygon id="Fill-18" class="st1" points="48.4,9.8 50.1,9.8 50.1,19.3 50.1,21.6 47.9,21.6 47.9,23.3 56,23.3 56,21.6 53.3,21.6 
		53.3,19.3 53.3,16.4 54.9,16.4 54.9,17.8 56.7,17.8 56.7,13.1 54.9,13.1 54.9,14.5 53.3,14.5 53.3,9.8 127.4,9.8 127.4,7.7 
		48.4,7.7 	"/>
	<g id="Clip-21">
	</g>
	<defs>
		<filter id="Adobe_OpacityMaskFilter" filterUnits="userSpaceOnUse" x="129.8" y="7.8" width="3" height="2">
			<feColorMatrix  type="matrix" values="1 0 0 0 0  0 1 0 0 0  0 0 1 0 0  0 0 0 1 0"/>
		</filter>
	</defs>
	<mask maskUnits="userSpaceOnUse" x="129.8" y="7.8" width="3" height="2" id="mask-2_1_">
		<g class="st2">
			<polygon id="path-1_1_" class="st3" points="-8,35.7 168.9,35.7 168.9,-3.8 -8,-3.8 			"/>
		</g>
	</mask>
	<polygon id="Fill-20" class="st4" points="129.8,9.8 132.9,9.8 132.9,7.8 129.8,7.8 	"/>
	<defs>
		<filter id="Adobe_OpacityMaskFilter_1_" filterUnits="userSpaceOnUse" x="61" y="11.9" width="9" height="11.6">
			<feColorMatrix  type="matrix" values="1 0 0 0 0  0 1 0 0 0  0 0 1 0 0  0 0 0 1 0"/>
		</filter>
	</defs>
	<mask maskUnits="userSpaceOnUse" x="61" y="11.9" width="9" height="11.6" id="mask-2_2_">
		<g class="st5">
			<polygon id="path-1_2_" class="st3" points="-8,35.7 168.9,35.7 168.9,-3.8 -8,-3.8 			"/>
		</g>
	</mask>
	<path id="Fill-22" class="st6" d="M66.9,17.3H64v-3c0-0.6,0.2-0.9,0.8-0.9h1.3c0.5,0,0.8,0.2,0.8,0.7V17.3z M65.7,11.9h-0.4
		c-3.4,0-4.2,0.8-4.2,2.7v4.7V21c0,2.1,1.3,2.5,4.3,2.6h0.3c3.3-0.1,4.3-0.3,4.3-2.3v-1.6h-2.9v0.8c0,1.1-0.2,1.2-1.6,1.2
		c-1.6,0-1.5-0.2-1.5-1.2v-1.2v-0.8h6v-4.3C70,12.6,68.8,11.9,65.7,11.9L65.7,11.9z"/>
	<defs>
		<filter id="Adobe_OpacityMaskFilter_2_" filterUnits="userSpaceOnUse" x="74.3" y="11.9" width="9.4" height="11.4">
			<feColorMatrix  type="matrix" values="1 0 0 0 0  0 1 0 0 0  0 0 1 0 0  0 0 0 1 0"/>
		</filter>
	</defs>
	<mask maskUnits="userSpaceOnUse" x="74.3" y="11.9" width="9.4" height="11.4" id="mask-2_3_">
		<g class="st7">
			<polygon id="path-1_3_" class="st3" points="-8,35.7 168.9,35.7 168.9,-3.8 -8,-3.8 			"/>
		</g>
	</mask>
	<path id="Fill-23" class="st8" d="M81.7,11.9c-1.5,0-2.6,1.9-3.3,2.8v-2.6h-4.1v1.5h1.1v5.7v2.3h-1.1v1.7h5.1v-1.7h-1v-2.3v-2
		c0-0.4,2.4-3.5,2.4-3.1v4.2h2.8v-4.8C83.7,12.6,83,11.9,81.7,11.9"/>
	<defs>
		<filter id="Adobe_OpacityMaskFilter_3_" filterUnits="userSpaceOnUse" x="87.7" y="11.9" width="9.4" height="11.4">
			<feColorMatrix  type="matrix" values="1 0 0 0 0  0 1 0 0 0  0 0 1 0 0  0 0 0 1 0"/>
		</filter>
	</defs>
	<mask maskUnits="userSpaceOnUse" x="87.7" y="11.9" width="9.4" height="11.4" id="mask-2_4_">
		<g class="st9">
			<polygon id="path-1_4_" class="st3" points="-8,35.7 168.9,35.7 168.9,-3.8 -8,-3.8 			"/>
		</g>
	</mask>
	<path id="Fill-24" class="st10" d="M95.1,11.9c-1.5,0-2.6,1.9-3.3,2.8v-2.6h-4.1v1.5h1.1v5.7v2.3h-1.1v1.7h5.1v-1.7h-1v-2.3v-2
		c0-0.4,2.4-3.5,2.4-3.1v4.2h2.8v-4.8C97.1,12.6,96.4,11.9,95.1,11.9"/>
</g>
<g>
	<path class="st11" d="M11.5,1c0.1,0.1,0.2,0.1,0.3,0.1c0.1,0,0.2,0.1,0.3,0c0-0.1,0-0.2-0.1-0.3c-0.1-0.2-0.2-0.2-0.3-0.5
		c0-0.1-0.1-0.1-0.1-0.1c0,0,0,0.2-0.1,0.3c0,0.1-0.2,0.2-0.1,0.2C11.3,0.9,11.4,1,11.5,1z"/>
	<path class="st11" d="M23.4,13.3c-0.1,0.2-0.2,0.5-0.4,0.8c-0.3,0.4-0.6,0.9-0.8,0.9c-0.1,0-0.1-0.2-0.1-0.2s-0.1-0.4,0.1-0.9
		c0.2-0.3,0.2-0.4,0.4-0.7c0.2-0.2,0.3-0.4,0.4-0.6c0.1-0.2,0.1-0.3,0.2-0.6c0-0.1,0-0.3-0.1-0.3c-0.1,0-0.4,0.7-0.8,1.1
		c-0.3,0.4-0.9,0.8-0.9,0.8s-0.1,0-0.1-0.1c0-0.1,0-0.4,0-0.7c0.1-0.3,0.1-0.5,0.4-1c0.3-0.5,0.6-0.8,0.8-1c0.1-0.1,0.3-0.2,0.2-0.3
		c-0.1-0.1-0.4,0.2-0.6,0.4c-0.3,0.2-0.4,0.3-0.7,0.6c-0.3,0.3-0.4,0.5-0.4,0.5s-0.3,0.4-0.3,0.9c-0.1,0.4-0.1,0.7-0.1,0.7
		s0,0.4,0,0.6c0,0.2,0.1,0.6,0.1,0.6s0.1,0.4,0.2,0.7c0.1,0.3,0.2,1,0.2,1s0.1,0.5,0,1.1s-0.1,0.8-0.1,1s-0.2,0.6-0.5,0.9
		c-0.2,0.3-0.3,0.3-0.3,0.3s-0.3,0.2-0.5,0.3c-0.2,0.1-0.5,0.3-0.7,0.3c-0.1,0-0.3,0-0.4,0h-0.2l-0.1,0l0-0.1c0,0-0.1-0.6-0.3-0.9
		c-0.1-0.3-0.4-0.7-0.4-0.7s-0.5-0.7-0.9-1.1c-0.5-0.5-1-0.8-1.3-1c-0.1-0.1-0.4-0.2-0.4-0.2s-1-1-1.4-1.9c-0.3-0.6-0.4-1-0.4-1.6
		c0-0.1,0.1-0.4,0.1-0.4l0.2,0.1c0,0,0.2,0.2,0.3,0.2c0.1,0,0.2,0.1,0.2,0.1s0.1,0,0.2,0c0.1,0,0.2,0.1,0.3,0.1
		c0.1,0,0.2,0.1,0.2,0.1l0.2,0.2l0.3,0.2c0,0,0.1,0.1,0.2,0.1c0,0,0.1,0,0.1,0h0.1c0,0,0.1,0,0.1-0.1c0-0.1-0.1,0-0.2-0.2
		c-0.1-0.1-0.2-0.2-0.2-0.2s0-0.1-0.1-0.2c-0.1-0.1-0.3-0.2-0.3-0.2s-0.1-0.1-0.2-0.1c-0.1,0-0.2,0-0.2-0.1c0-0.1,0.2,0,0.2,0
		s0.2,0,0.4,0.1c0.2,0.1,0.3,0.2,0.3,0.2l0.1,0.1l0.1,0.1l0.1,0c0,0,0.1,0.1,0.1,0c0-0.1,0-0.2,0-0.2l-0.1-0.1l-0.3-0.2
		c-0.1-0.1-0.1-0.1-0.2-0.2c-0.1-0.1-0.2-0.1-0.4-0.2c-0.1-0.1-0.2,0-0.4-0.1c-0.1,0-0.2-0.1-0.2-0.2c0,0-0.1-0.1,0,0
		c0.1,0,0.2,0.1,0.4,0.1c0.2,0.1,0.4,0.1,0.6,0.1c0.1,0,0.2,0.1,0.2,0.1l0.3,0.1c0,0,0.4,0.2,0.6,0.2s0.5,0,0.6-0.1
		c0.1,0,0.2-0.1,0.3-0.2s0.1-0.1,0.1-0.1l0-0.1v-0.1c-0.1-0.1-0.2,0.1-0.4,0.2c-0.2,0-0.2,0.1-0.4,0c-0.2,0-0.3-0.1-0.4-0.2
		c-0.2-0.2-0.3-0.4-0.6-0.5c-0.1-0.1-0.4-0.1-0.4-0.1s-0.3-0.1-0.5-0.2c-0.1-0.1-0.4-0.1-0.3-0.2c0-0.1,0.4,0.1,0.6,0.2
		c0.2,0,0.3,0,0.5,0c0.1,0,0.3,0,0.4,0c0,0,0.1,0,0.2,0c0.1,0,0.2,0.1,0.3,0.1s0.2,0.1,0.2,0.1l0.1,0l0,0l0,0l0,0l0,0l-0.1-0.1
		c0,0-0.1-0.1-0.2-0.2c-0.1-0.1-0.2-0.2-0.4-0.3c-0.2-0.1-0.4-0.1-0.4-0.1l-0.2,0l-0.1,0c0,0-0.1,0,0-0.1c0.1,0,0.2,0,0.2,0
		c0,0,0.2,0,0.3,0c0.1,0,0.3,0.1,0.3,0.1c0,0,0.2,0.1,0.4,0.2c0.2,0,0.4,0.1,0.4,0.1l0.1,0l0.1,0l0,0l0-0.1c0,0,0-0.1-0.1-0.1
		c-0.1,0-0.3,0-0.4-0.2c-0.2-0.1-0.3-0.2-0.3-0.2S16.2,9.9,16,9.8c-0.2-0.1-0.3-0.1-0.3-0.1l-0.1,0l-0.2-0.1c0,0-0.1,0-0.1-0.1
		c-0.1-0.1-0.1-0.2,0.1-0.1c0.2,0.1,0.3,0.1,0.3,0.1s0.1,0.1,0.2,0.1c0.1,0,0.1,0,0.2,0c0.1-0.1-0.1-0.2-0.3-0.3
		c-0.1-0.1-0.2-0.3-0.2-0.3s-0.1-0.1,0,0S16,9.3,16,9.3s0.1,0.1,0.2,0.1c0,0,0.2,0.1,0.2,0.1c0,0,0.2,0,0.3,0.1
		c0.1,0.1,0.2,0.2,0.2,0.2c0.1,0,0.1,0.1,0.2,0.1c0.1,0,0.1,0,0.1,0c0,0,0.1,0,0.1,0s0,0-0.1-0.1c-0.1,0-0.2-0.2-0.2-0.2l0-0.1
		l0-0.1l-0.1-0.1l-0.1-0.2c0,0-0.2-0.3-0.4-0.4c-0.2-0.1-0.3-0.2-0.3-0.2S16,8.7,16,8.6c-0.1-0.1-0.1-0.1-0.2-0.2
		c-0.1-0.1-0.1-0.1-0.2-0.2C15.5,8.1,15,8,15.2,7.9c0.1-0.1,0.2,0,0.3,0c0.1,0,0.2,0.1,0.3,0.1C15.9,8,15.9,8,16,8
		c0.1,0,0.2,0,0.2,0.1c0,0,0.1,0.1,0.1,0.1c0,0,0.1,0.2,0.3,0.3c0.2,0.1,0.3,0.2,0.5,0.2c0.2,0,0.4,0,0.4,0s0.1,0,0-0.1
		c-0.1-0.1-0.1-0.1-0.1-0.1c-0.2-0.1-0.4-0.1-0.6-0.2c-0.1-0.1-0.1-0.1-0.2-0.2c-0.1-0.1,0-0.1-0.1-0.2c0-0.1-0.1-0.2-0.1-0.2
		s-0.2-0.3-0.4-0.4C15.9,7.1,15.7,7,15.7,7c0,0-0.1-0.1-0.1-0.1l-0.1-0.1c0,0,0-0.1,0-0.1c0-0.2,0.3,0,0.4,0.1
		c0.3,0.1,0.4,0.2,0.6,0.3c0.1,0,0.2,0,0.4,0.1c0.2,0.1,0.3,0.3,0.6,0.4c0.1,0,0.4,0.1,0.4-0.1c-0.1-0.1-0.3-0.1-0.5-0.3
		C17.3,7,17.3,7,17.2,6.9c-0.1-0.1-0.4-0.3-0.4-0.3s-0.1-0.1-0.2-0.3c-0.1-0.2-0.3-0.3-0.7-0.5c-0.3-0.1-0.8-0.2-0.6-0.3
		c0.1-0.1,0.2-0.1,0.4,0c0.2,0.1,0.2,0.1,0.3,0.2c0.1,0.1,0.2,0.1,0.2,0.1c0,0,0.1,0.1,0.2,0.1c0,0,0.2,0,0.3,0.1
		C16.8,5.9,17,6,17,6l0.2,0.1c0,0,0.1,0,0.2,0c0.1,0,0.2,0,0.2,0L17.7,6l0,0c0,0,0-0.1-0.1-0.1c-0.1,0-0.2,0-0.2,0l-0.1,0l0,0
		c0,0-0.2-0.2-0.4-0.2c-0.2-0.1-0.2-0.1-0.2-0.1l-0.1,0l-0.1,0c0,0-0.1,0-0.2-0.1s-0.2-0.2-0.3-0.3C16.1,5.1,16,5,16,5
		s-0.1-0.1-0.1-0.2c0-0.1,0.3,0.1,0.3,0.1l0.2,0.1c0,0,0.1,0.1,0.4,0.1s0.6-0.1,0.6-0.1s0,0,0.2,0c0.1,0,0.3,0.1,0.3,0.1l0.1,0.1
		l0.2,0.2l0,0c0,0,0.1-0.1,0-0.2C17.9,5.1,17.7,5,17.7,5s-0.3-0.2-0.6-0.2c-0.3-0.1-0.4-0.1-0.4-0.1s-0.2,0-0.3-0.1
		c-0.1-0.1-0.2-0.3-0.2-0.3l0-0.2c0,0-0.1-0.1-0.2-0.1c-0.1-0.1-0.3-0.1-0.3-0.1s-0.2-0.1-0.2-0.2c0-0.2,0.4,0,0.6,0
		c0.2,0,0.3,0.1,0.5,0.2c0.2,0,0.3,0.1,0.5,0c0.1,0,0.2,0,0.3,0c0.1,0,0.2,0,0.3,0c0.1,0,0.2,0.1,0.3,0.2c0.1,0,0.1,0.1,0.2,0.1
		c0.1,0,0.3,0.1,0.2,0l0-0.1C18.1,3.9,18,3.9,18,3.9c-0.2-0.1-0.3-0.3-0.5-0.4c-0.1-0.1-0.2-0.1-0.4-0.1c-0.1,0-0.2,0-0.3,0
		c-0.1,0-0.2-0.1-0.3-0.2c-0.2-0.1-0.3-0.2-0.5-0.3c-0.1-0.1-0.4-0.1-0.4-0.1l-0.1,0l0,0c-0.2-0.1,0.4-0.2,0.6-0.3
		c0.1,0,0.2-0.1,0.3,0c0.1,0,0.2,0.2,0.4,0.1c0.2-0.1-0.2-0.4-0.3-0.4c-0.2-0.1-0.5,0-0.5,0l-0.7,0L15,2c0,0-0.1,0-0.2-0.1
		s-0.4-0.5-0.8-0.6c-0.4-0.1-0.5,0-0.5,0c-0.3-0.5-0.7-0.6-0.9-0.9c-0.1-0.1-0.2-0.2-0.2-0.2c0,0-0.1,0.2-0.1,0.4
		c-0.1,0.2,0,0.3,0,0.4c0.1,0.1,0.1,0.1,0,0.2c-0.1,0.1-0.3,0.1-0.3,0.1s-0.2,0-0.3-0.1c-0.1-0.1-0.4-0.2-0.4-0.2S11,1,10.8,1
		c-0.2,0-0.2,0-0.3,0c-0.1,0-0.1,0-0.2,0c-0.1,0-0.1,0-0.1,0c0,0.1,0.1,0.1,0.2,0.1c0.1,0,0.3,0,0.3,0.1c-0.1,0.1-0.3,0.1-0.3,0.1
		c0,0-0.2,0-0.3,0c-0.2,0-0.2,0-0.5,0.1c0,0,0,0.1,0.1,0.1c0.1,0,0.2-0.1,0.4-0.1c0.2,0,0.3,0.1,0.4,0.1c0.1,0,0.2,0.1,0.4,0.1
		c0,0,0.1,0,0.1,0c0,0-0.1,0.1-0.1,0.1s-0.1,0-0.1,0.1c0,0.1,0.1,0,0.2,0s0.1,0,0.1,0.1l0,0c-0.2,0-0.2,0.1-0.4,0.1
		c-0.4,0.1-0.5,0.3-0.8,0.5C9.7,2.8,9.1,3,9.1,3S9,3.1,8.7,3.1c-0.2,0.1-0.2,0-0.4,0.1c-0.2,0-0.2,0-0.4,0.1c-0.1,0-0.1,0.1-0.2,0.2
		L7.6,3.8L7.5,4C7.4,4,7.4,4,7.4,4.1c0,0.1,0,0.1-0.1,0.2c0,0.2,0,0.3,0,0.4c0,0,0,0.1,0,0.1c0,0,0.1,0.1,0.1,0.1l0.1,0
		c0,0,0.2,0,0.3,0c0.1,0,0.3-0.1,0.3-0.1l0.2-0.1l0.2-0.1c0,0,0.1,0,0.1,0.1c0,0,0,0.1,0,0.1s-0.1,0-0.2,0.1S8.2,5,8.2,5L8,5.1
		l-0.2,0c0,0,0,0-0.1,0.1c0,0,0,0,0,0.1c0,0,0,0.1,0.1,0.1C7.9,5.3,8,5.4,8,5.4c0.1,0,0.2,0,0.3,0c0.1,0,0.2,0,0.4-0.1
		C8.8,5.3,8.8,5.3,9,5.2c0,0,0.1,0,0.2,0c0.3,0,0.4,0,0.7,0.1c0.3,0,0.4,0.1,0.7,0.2c0.3,0,0.5,0.1,0.8,0.1c0.1,0,0.2-0.1,0.3,0
		c0.1,0.1,0.1,0.2,0.1,0.2s0,0.1-0.1,0.4S11.1,7,11.1,7l-0.2,0.4c0,0-0.2,0.3-0.6,0.8C9.9,8.7,9.9,8.7,9.9,8.7S9.7,8.9,9.5,9.1
		C9.2,9.4,9.2,9.5,9,9.7C8.9,9.8,8.8,9.9,8.7,10s-0.3,0.1-0.8,0.4c-0.4,0.3-0.7,0.5-0.7,0.5c0,0-0.2-0.1-0.2-0.2
		c0,0-0.9-0.6-0.9-0.6L5.7,10L5.5,9.9l0-0.1L5.4,9.7c0,0-0.1-0.2-0.3-0.3C5,9.3,4.8,9.2,4.6,9.1C4.3,9,4.2,9,3.9,9.1
		C3.8,9.1,3.7,9.2,3.6,9.3C3.4,9.4,3.4,9.6,3.3,9.7S3,10.1,3,10.1c-0.1,0.1-0.2,0.3-0.2,0.3s-0.3,0.5-0.4,0.8
		c-0.2,0.3-0.3,0.5-0.4,0.8c-0.3,0.5-0.7,1-0.8,1.2s-0.1,0.3-0.1,0.3s0,0.1,0,0.2c0,0.1,0,0.2,0,0.3c0,0.1-0.1,0.1-0.1,0.2
		c0,0-0.2,0.3-0.2,0.6c-0.1,0.2-0.2,0.9,0,1s1.3-0.4,1.5-0.9c0.1-0.3-0.3-0.5-0.2-0.8C2,14,2,14,2.1,13.9c0.1-0.2,0.1-0.6,0.3-0.9
		c0.2-0.3,0.5-0.6,0.9-1.1c0.3-0.3,0.5-0.8,0.5-0.8s0.1-0.2,0.2-0.1c0.1,0,0.2,0,0.2,0l0.1,0l0.1,0.1l0.2,0.3c0,0,0.3,0.4,0.4,0.5
		s0.2,0.2,0.3,0.3c0.2,0.1,0.2,0.2,0.4,0.4c0.3,0.2,0.2,0.3-0.2,0.1c-0.1-0.1-0.3-0.1-0.5-0.2c-0.2,0-0.8-0.2-1.1-0.3
		c-0.3,0-0.4,0-0.4,0s-0.2,0-0.3,0.1c-0.2,0.1-0.3,0.2-0.3,0.2s-0.2,0.2-0.2,0.3c0,0-0.1,0.2-0.1,0.2s-0.1,0.1-0.1,0.2
		c0,0.1,0,0.2,0,0.2l0,0.2l0,0.2c0,0,0,0.5,0.1,1c0,0.1,0.1,0.4,0.1,0.4l0.1,0.5c0,0,0,0.5,0.1,0.7c0,0.2,0.1,0.2,0.1,0.3
		C3,17,2.9,17.1,3,17.3c0.1,0.3,0.2,0.2,0.3,0.4c0.1,0.1,0.1,0.1,0.2,0.3s0.2,0.6,0.5,1c0.2,0.4,0.5,0.8,0.7,0.8S5,19.4,5,19.4
		s0.2-0.6,0.1-1.2c-0.1-0.6-0.8-0.3-0.9-0.8c0-0.1,0-0.3,0-0.3s0-0.2,0-0.2c0-0.1-0.3-0.5-0.3-0.8c-0.1-0.3-0.1-1.1-0.1-1.4
		C3.5,14,3.5,14.1,3.6,14c0.1-0.1,0.2-0.1,0.2-0.1l0.1,0l0.1,0c0,0,0.1,0.1,0.2,0.1c0.1,0,0.3,0.2,0.3,0.2l0.5,0.3
		c0,0,0.3,0.2,0.4,0.2c0.1,0.1,0.2,0.1,0.2,0.1L5.7,15l0.2,0.2l0,0l0,0.1c0,0,0.1,0.2,0.5,0.5c0.3,0.2,0.6,0.1,0.8,0.3
		c0,0,0.3,0.4,0.4,0.6c0.1,0.2,0.3,0.5,0.4,0.6s0.4,0.5,0.4,0.5l0.5,0.5l0.6,0.6l0.6,0.5l0.4,0.3c0,0,0.3,0.3,0.7,0.5
		c0.3,0.2,0.4,0.3,0.6,0.4c0.2,0.1,0.4,0.3,0.6,0.4c0.2,0.2,0.5,0.5,0.4,0.6c-0.1,0-0.2-0.1-0.4-0.4c-0.2-0.2-0.3-0.3-0.5-0.4
		c-0.3-0.2-0.4-0.3-0.7-0.5c-0.1-0.1-0.4-0.2-0.4-0.2c-0.1,0.3-0.1,0.6-0.1,1c0,0.3,0.1,0.5,0.1,0.8c0.1,0.3,0.1,0.5,0.3,0.8
		c0.1,0.3,0.3,0.8,0.3,0.8l0.3,0.7l0.3,0.5l0.2,0.3l0.1,0.1c0,0,0.1,0.2,0,0.3c-0.1,0.1-0.2,0.4-0.3,0.4c-0.1,0-0.4,0-0.4,0l-1.7,0
		l-0.9-0.1c0,0-0.1-0.1-0.6-0.1c-0.3,0-0.5,0.1-0.7,0.1c-0.1,0-0.8,0-1.3,0.1c-0.4,0.2-0.6,0.2-0.8,0.5C5.3,26.6,6,26.9,6.5,27
		c0.9,0.2,0.6-0.2,1-0.4c0,0,0.1-0.1,0.1-0.1c0.2-0.1,0.4,0.1,0.6,0.1c0.3,0,0.4-0.1,0.7-0.1c1.3-0.2,3.3,0.4,3.3,0.4
		s0.5,0.2,0.7,0.1c0.3-0.1,0.2-0.2,0.3-0.3c0.1-0.1,0-0.2,0.1-0.3c0-0.1,0-0.1,0-0.2C13.2,26,13,25.7,13,25.7s-0.1-0.3-0.2-0.4
		c-0.1-0.2-0.1-0.3-0.1-0.5c-0.1-0.5-0.1-0.5-0.1-0.8c0-0.5,0.1-0.8,0.2-1.4c0.2-0.8,0.6-1.1,0.9-1.8c0.1-0.2,0.1-0.5,0.2-0.5
		c0.1,0,0.1,0.4,0,0.6c-0.2,0.7-0.6,1.1-0.9,1.8c-0.2,0.6-0.2,0.9-0.2,1.5c0,0.3,0.1,0.8,0.1,0.8s0.2,0.6,0.3,0.8
		c0.1,0.2,0.3,0.6,0.3,0.6l0.4,0.7l0.2,0.3c0,0,0.1,0.1,0.1,0.3s-0.2,0.3-0.4,0.5c-0.5,0.6-1.6,1.4-1.9,1.6
		c-0.4,0.3-0.4,0.4-0.4,0.5c-0.2,0.5-0.6,0.5-1.1,1c-0.1,0.1-0.4,0.4-0.4,0.7c0,0.1,1.3,0.3,2,0c0.6-0.2,0.1-0.5,0.2-0.8
		c0.1-0.2,0.4-0.2,0.5-0.4c0.2-0.3,0.1-0.3,0.3-0.5c0.6-0.7,1-1.2,2.1-1.8c0.1-0.1,0.3-0.1,0.3-0.1s0.2-0.1,0.2-0.2
		c0.1-0.1,0.1-0.2,0.1-0.3c0-0.1,0-0.1,0-0.2c0-0.1,0-0.2,0-0.3c0-0.2-0.1-0.3-0.2-0.4c-0.1-0.1-0.2-0.2-0.2-0.5
		c-0.1-0.3-0.1-0.5,0-0.8c0.1-0.3,0.4-0.5,0.4-0.5l0.6-0.4c0,0,0.6-0.4,0.7-0.6c0.2-0.2,0.5-0.5,0.8-0.9c0.3-0.4,0.5-0.7,0.6-1.2
		c0-0.2,0.1-0.5,0.1-0.5s0-0.2,0.1-0.2c0.1,0,0.1,0,0.1,0s0.1,0.1,0.1,0.3c0,0.3-0.1,0.6-0.1,0.6s-0.1,0.3-0.1,0.5
		c0,0.1,0,0.2,0,0.3c0,0.2,0.1,0.4,0.1,0.4s0.1,0,0.1-0.1c0-0.1,0-0.3,0.1-0.5c0-0.1,0.1-0.1,0.2-0.4c0.1-0.3,0-0.3,0.1-0.5
		c0-0.1,0.1-0.2,0.2-0.2s0.1,0.1,0.1,0.1s0.1,0.4,0,0.7c-0.1,0.3-0.3,0.8-0.3,0.8L19,24.3c0,0-0.1,0.2-0.2,0.4
		c-0.1,0.2-0.1,0.2,0,0.4c0,0.2,0.2,0.4,0.2,0.4c0.1,0-0.1-0.2,0.1-0.5c0.2-0.3,0.4-0.6,0.4-0.6s0.3-0.4,0.5-0.7
		c0.1-0.3,0.3-0.7,0.3-0.7s0.1-0.4,0.1-0.7c0-0.3-0.1-0.5-0.1-0.5l-0.1-0.2L20,21.5l0-0.1c0,0,0.1,0.1,0.2,0.2
		c0.1,0.1,0.2,0.3,0.2,0.5c0,0.1,0.1,0.3,0.1,0.4c0,0.1,0,0.6,0.1,0.9c0.1,0.1,0.2,0.5,0.3,0.3c0-0.3-0.1-0.5-0.1-0.8
		c0-0.3,0.1-0.3,0.1-0.4c0-0.2,0.1-0.2,0-0.5c0-0.2-0.1-0.5-0.1-0.5l-0.1-0.2l0-0.1c0,0,0,0,0.1,0c0,0,0.3-0.1,0.3-0.1
		s0.4-0.2,0.6-0.3c0.2-0.1,0.4-0.4,0.4-0.4s0.3-0.4,0.4-0.6c0.3-0.6,0.3-1.5,0.3-1.8c0-0.4-0.1-0.8-0.1-0.8s-0.1-0.6-0.1-0.9
		c0-0.4,0.1-0.5,0.1-0.5s0-0.4,0.3-0.8s0.5-0.7,0.5-1C23.6,13.5,23.6,13.1,23.4,13.3z M14,10.7c0,0-0.1-0.1-0.1-0.1s0,0,0,0
		c0,0,0.1,0,0.1,0l0,0l0.1,0.1C14.1,10.7,14,10.7,14,10.7z M14.1,10.2c0,0-0.1-0.1-0.1-0.1s0,0,0-0.1c0,0,0.1,0,0.1,0l0,0
		c0,0,0.1,0.1,0.1,0.1C14.3,10.3,14.2,10.2,14.1,10.2z M14.3,9.7c-0.1,0-0.1-0.1-0.1-0.1s0,0,0-0.1c0.1,0,0.1,0,0.1,0l0.1,0
		c0,0,0.1,0.1,0.1,0.1C14.5,9.8,14.3,9.8,14.3,9.7z M14.4,9.3c-0.1,0-0.1-0.1-0.1-0.1s0,0,0-0.1s0.1,0,0.1,0l0.1,0
		c0,0,0.1,0.1,0.1,0.1C14.6,9.4,14.5,9.3,14.4,9.3z M14.5,8.8c-0.1,0-0.2-0.1-0.2-0.1s0,0,0-0.1c0.1,0,0.2,0,0.2,0l0.1,0
		c0,0,0.1,0.1,0.1,0.2C14.8,8.8,14.6,8.8,14.5,8.8z M14.6,8.2c-0.1,0-0.2-0.1-0.2-0.1s0,0,0.1-0.1c0.1,0,0.2,0,0.2,0l0.1,0
		c0,0,0.1,0.1,0.1,0.2C14.9,8.3,14.7,8.2,14.6,8.2z M14.7,7.6c-0.1,0-0.2-0.1-0.2-0.1s0,0,0.1-0.1c0.1-0.1,0.2,0,0.2,0s0,0,0.1,0
		c0,0,0.2,0.2,0.2,0.2C15,7.7,14.8,7.6,14.7,7.6z M14.8,7c-0.1,0-0.3-0.1-0.3-0.1s0-0.1,0.1-0.1c0.1-0.1,0.3,0,0.3,0s0.1,0,0.1,0.1
		c0,0,0.2,0.2,0.2,0.3C15.1,7.1,14.9,7,14.8,7z M14.7,4.3c-0.1,0-0.2-0.1-0.2-0.1s0,0,0.1-0.1c0.1,0,0.2,0,0.2,0s0,0,0.1,0
		c0,0,0.1,0.1,0.1,0.2C15,4.4,14.8,4.3,14.7,4.3z M15,4.9c0,0.1-0.2,0-0.3,0c-0.1,0-0.2-0.1-0.2-0.1s0,0,0.1-0.1
		c0.1-0.1,0.2,0,0.2,0s0,0,0.1,0C14.9,4.8,15,4.9,15,4.9z M14.6,6c0.1-0.1,0.2,0,0.2,0s0,0,0.1,0c0,0,0.2,0.2,0.2,0.2
		c0,0.1-0.2,0-0.3,0C14.7,6.2,14.6,6.1,14.6,6C14.6,6.1,14.5,6.1,14.6,6z M14.8,5.5c-0.1,0-0.2-0.1-0.2-0.1s0,0,0.1-0.1s0.2,0,0.2,0
		s0,0,0.1,0c0,0,0.2,0.2,0.2,0.2C15.1,5.6,14.9,5.5,14.8,5.5z M15,3.4c0.1,0,0.1,0.1,0.1,0.1c-0.1,0-0.1,0-0.1,0
		c-0.1,0-0.1-0.1-0.3,0c-0.2,0.1,0,0-0.3,0.1c-0.2,0.1-0.2-0.1-0.2-0.1s0,0,0-0.2s0.2,0,0.3,0C14.7,3.3,14.9,3.3,15,3.4z M14.3,2.5
		L14.3,2.5c0.1,0.1,0.2,0.2,0.2,0.2c0,0.1-0.2,0-0.2,0c-0.1,0-0.2-0.1-0.2-0.1s0,0,0.1-0.1C14.2,2.5,14.3,2.5,14.3,2.5z M13.8,1.8
		c0.1,0,0.2,0,0.2,0l0.1,0c0,0,0.1,0.1,0.1,0.2c0,0.1-0.2,0-0.2,0C13.9,2,13.8,1.9,13.8,1.8C13.8,1.9,13.8,1.8,13.8,1.8z M13.7,11.1
		c0,0,0.1,0,0.1,0l0,0l0.1,0.1C13.9,11.2,13.8,11.2,13.7,11.1C13.7,11.2,13.7,11.1,13.7,11.1C13.7,11.1,13.6,11.1,13.7,11.1z
		 M7.9,4.3c0,0-0.1,0-0.1,0.1C7.7,4.4,7.7,4.5,7.6,4.5c-0.1,0,0-0.2,0-0.2s0-0.1,0.1-0.2C7.8,4,7.9,4,7.9,4C7.9,4,8.1,4,8.1,4.1
		C8.1,4.3,8,4.2,7.9,4.3z M9.1,4.7C9.1,4.7,9.1,4.7,9.1,4.7c-0.1-0.2,0-0.2,0-0.2s0.2-0.1,0.2,0C9.3,4.6,9.1,4.7,9.1,4.7z M10.7,2.8
		c0,0-0.2,0.3-0.4,0.4C10,3.3,9.8,3.3,9.3,3.4c-0.1,0,0,0,0,0S9.8,3.2,10.1,3c0.2-0.1,0.4-0.2,0.4-0.3C10.8,2.6,10.7,2.8,10.7,2.8z
		 M1,15.2c0,0.1-0.1,0.2-0.1,0.2s-0.1-0.1-0.1-0.2c0-0.1,0-0.3,0.1-0.2C1.1,14.9,1,15.1,1,15.2z M1.4,13.5c0,0-0.1,0.3-0.2,0.2
		c0-0.1,0-0.3,0-0.3c0.1-0.1,0.2-0.2,0.2-0.2C1.5,13.3,1.4,13.5,1.4,13.5z M3.2,10.7c-0.1,0.1-0.5,0.9-0.6,0.8
		c-0.1-0.1,0.4-0.8,0.5-1c0.1-0.2,0.2-0.1,0.2-0.1l0,0C3.3,10.5,3.3,10.6,3.2,10.7z M4.3,9.6c0,0-0.3,0.1-0.2,0
		c0.1-0.1,0.3-0.1,0.3-0.1c0.2,0,0.2,0,0.2,0.1C4.5,9.6,4.3,9.6,4.3,9.6z M5.4,11.6c-0.1,0.1-0.2,0-0.4-0.3C4.9,11.2,4.9,11,4.9,11
		h0l0,0L5,11l0,0c0,0,0.1,0.1,0.1,0.1C5.3,11.3,5.4,11.6,5.4,11.6z M3.2,15.9C3.2,15.9,3.1,15.8,3.2,15.9c-0.1-0.1-0.2-0.3-0.2-0.4
		c0-0.1-0.1-0.3-0.1-0.3s0-0.2,0-0.3c0-0.1,0-0.2,0-0.3c0-0.1,0.1,0,0.1,0C3,14.6,3,14.6,3,14.6v0c0,0,0,0.3,0,0.5
		C3.1,15.2,3.2,15.8,3.2,15.9C3.2,15.8,3.3,15.9,3.2,15.9z M3.2,12.9C3.1,13.1,3,13.1,3,13.1C3,13,3,13,3,12.8
		c0.1-0.2,0.2-0.2,0.2-0.2l0,0C3.3,12.7,3.3,12.7,3.2,12.9z M4.2,18.9c0-0.1,0.2,0.1,0.2,0.1c0.1,0,0.1,0.1,0.1,0.1s0,0.1-0.1,0.1
		c-0.1,0-0.1,0-0.1,0S4.2,19,4.2,18.9z M5.5,14.5c-0.2,0-0.6-0.4-0.8-0.5c-0.2-0.1-0.5-0.1-0.3-0.2c0,0,0,0,0.1,0s0.2,0,0.2,0
		L4.9,14c0,0,0.2,0.1,0.3,0.1c0.1,0.1,0.3,0.2,0.3,0.2l0.1,0.1C5.6,14.4,5.7,14.6,5.5,14.5z M7.3,11.7c0,0-0.2,0.3-0.4,0.5
		c-0.2,0.3-0.4,0.7-0.5,0.6c0,0,0.2-0.5,0.3-0.7C6.9,11.8,7.1,11.6,7.3,11.7C7.4,11.5,7.3,11.7,7.3,11.7z M6.5,26c0,0,0,0.1-0.1,0.1
		c-0.1,0.1-0.1,0-0.2,0S6.1,26.1,6.1,26c0-0.1,0.2-0.1,0.2-0.1C6.6,25.9,6.5,26,6.5,26z M8.7,25.9c-0.1,0-0.1,0-0.1-0.1
		c0,0,0,0,0.1,0s0.1,0.1,0.1,0.1C8.9,25.9,8.8,25.9,8.7,25.9z M11.3,26.1c-0.2,0.1-0.3,0-0.5,0c-0.2,0-0.2,0-0.4,0
		c-0.3,0-0.3,0-0.7-0.1c-0.1,0-0.2-0.1-0.1-0.1c0,0,0.1,0,0.1,0s0.5,0.1,0.8,0.1c0.2,0,0.3,0,0.6,0c0.1,0,0.1,0,0.3,0
		C11.4,25.9,11.3,26,11.3,26.1z M12.6,25.7c0,0-0.1,0-0.2,0.1c-0.1,0,0-0.1,0-0.1s0.1-0.1,0.1-0.1c0.1,0,0.1,0,0.1,0
		C12.7,25.6,12.6,25.6,12.6,25.7z M13.7,22.9c-0.1,0.2-0.1,0.3-0.1,0.5c0,0.2,0.1,0.8-0.1,0.6c-0.1-0.1-0.1-0.6-0.1-0.8
		C13.5,22.7,13.9,22.5,13.7,22.9z M10.8,31.7c-0.1,0.1,0.1,0.2-0.2,0.2c-0.2,0-0.1-0.2-0.1-0.2l0.1-0.1c0.1-0.1,0.1-0.1,0.2-0.2
		c0.1,0,0.1,0.1,0.1,0.1s0,0,0,0.1C11,31.6,10.9,31.6,10.8,31.7z M12.3,30.2l-0.1,0.1c0,0-0.1,0.1-0.1,0c0,0,0-0.1,0-0.1
		c0,0,0.1-0.1,0.2-0.1c0.1,0,0.1,0,0.1,0C12.4,30.2,12.3,30.2,12.3,30.2z M13,5.1c0,0-0.1,0.2-0.2,0.2c-0.1,0-0.7,0.1-0.7,0
		c0,0,0.6-0.1,0.9-0.3C13,5,13,5.1,13,5.1z M12.8,4.6c0-0.1,0,0.1,0,0.1s0,0.2-0.1,0.2c-0.1,0.1-0.4,0.2-0.5,0.1
		C12.2,5.1,12.6,5,12.8,4.6z M11.9,2.5c0,0,0.1,0,0.1,0c0.1,0.1,0.1,0.2,0.1,0.2s0,0-0.1,0c0,0,0-0.1-0.1-0.1
		c-0.1,0-0.1-0.1-0.2-0.1c-0.1,0-0.2,0-0.2-0.1C11.7,2.5,11.9,2.5,11.9,2.5z M11.2,3c0,0,0-0.1,0.2-0.2c0.1-0.1,0.3-0.1,0.3-0.1
		s0.1,0,0.2,0.1C11.9,2.9,12,3.1,12,3.1s0,0.2,0,0.2s-0.2,0-0.2-0.1c-0.1-0.1-0.1-0.1-0.2-0.1c-0.1,0-0.3,0.1-0.3,0
		C11.2,3,11.2,3,11.2,3z M11.2,4.9C11.1,5,11.2,4.9,11.2,4.9c0-0.1,0.2-0.2,0.4-0.3c0.3-0.1,0.7-0.6,0.6-0.4
		c-0.1,0.1-0.2,0.3-0.2,0.3s-0.2,0.3-0.2,0.3C11.5,5,11.3,4.9,11.2,4.9z M9.2,10.5L9.2,10.5c0,0,0.4-0.3,1.1-0.2
		c0.4,0.1,0.8,0.4,0.7,0.5s-0.1,0-0.2,0l-0.1-0.1l-0.2-0.1c0,0-0.4-0.1-0.7-0.1c-0.3,0-0.5,0.1-0.5,0.1s-0.1,0.1-0.1,0
		C9.1,10.5,9.2,10.5,9.2,10.5z M10.2,18.6c-1-0.8-2.2-2.3-2-2.4c0.1-0.1,0.6,0.6,1.3,1.4c0.8,0.8,1.7,1.6,1.7,1.7
		C11.3,19.4,10.6,18.9,10.2,18.6z M12.5,7.9c-0.4,0.7-1,1.3-1,1.3C11.3,9.3,11.4,9,11.4,9s0.6-0.8,0.8-1.3c0.2-0.4,0.3-0.9,0.4-1
		C12.8,6.5,12.7,7.4,12.5,7.9z M13.6,15.7c-0.4-0.5-0.7-1.1-0.8-1.8c0-0.2,0-0.4,0.1-0.4c0.1,0,0.1,0.3,0.1,0.3
		c0,0.4,0.2,0.8,0.5,1.3c0.4,0.7,1.2,1.2,1.1,1.3C14.6,16.6,13.9,16,13.6,15.7z M13.7,29.1c-0.2,0.2-0.7,0.5-0.7,0.5H13v0v0l0,0l0,0
		l0,0l0,0l0.1-0.1l0.2-0.2l0.2-0.2l0.3-0.3c0,0,0.1-0.1,0.2-0.2c0,0,0.1-0.1,0.1-0.1c0.1,0,0.1-0.1,0.2,0v0.1
		C14.4,28.4,14,28.9,13.7,29.1z M14.6,18.5c-0.2,0.1-0.3,0.1-0.4,0.2c-0.1,0.2-0.2,0.7-0.3,0.5s0-0.5,0.2-0.7
		C14.4,18.2,14.9,18.3,14.6,18.5z M15.3,27.9c0.1,0,0.1,0,0.1,0l0,0.1c0,0-0.1,0.2-0.2,0.2c-0.1,0,0-0.1,0-0.1S15.2,28,15.3,27.9z
		 M17.8,22.1c-0.1-0.1,0.1-0.3,0.1-0.6c0-0.2,0-0.3,0-0.4s0.1-0.2,0.1-0.2c0,0,0.1,0,0.2,0.2C18.2,21.2,18,22.2,17.8,22.1z M22.1,18
		c0,0.6-0.1,1-0.4,1.5c-0.4,0.6-1.2,1.1-1,0.7c0.1-0.3,0.8-0.6,1-1.4c0.1-0.5,0.2-0.9,0.2-0.9l0-0.9c0,0,0-0.1,0-0.2
		c0-0.1,0.1,0,0.1,0l0,0C22,16.9,22.2,17.6,22.1,18z"/>
</g>
</svg>
